# xmcd CD database file
#
# Track frame offsets:
#	180
#	28231
#	72888
#	110426
#	142842
#	171396
#
# Disc length: 2673 seconds
#
# Revision: 0
# Processed by: cddbd v1.5.2PL0 Copyright (c) Steve Scherf et al.
# Submitted via: CDex 1.51
#
DISCID=500a6f06
DTITLE=Bruce MacLeod Trio - Use All Dozen
DYEAR=1995
DGENRE=Jazz
TTITLE0=Scratch Mussorgsky
TTITLE1=Tangent
TTITLE2=Song For Heather
TTITLE3=Use All Dozen
TTITLE4=Sad But True
TTITLE5=Wild Blue Yonder
EXTD=YEAR: 1995
EXTT0=
EXTT1=
EXTT2=
EXTT3=
EXTT4=
EXTT5=
PLAYORDER=
